<mxfile host="app.diagrams.net" modified="2021-01-14T13:27:28.837Z" agent="5.0 (Windows)" etag="mUCXeD0JaoHZ_uS8OTL4" version="14.2.2" type="github">
  <diagram id="C5RBs43oDa-KdzZeNtuy" name="Page-1">
    <mxGraphModel dx="1102" dy="611" grid="1" gridSize="10" guides="1" tooltips="1" connect="1" arrows="1" fold="1" page="1" pageScale="1" pageWidth="827" pageHeight="1169" math="0" shadow="0">
      <root>
        <mxCell id="WIyWlLk6GJQsqaUBKTNV-0" />
        <mxCell id="WIyWlLk6GJQsqaUBKTNV-1" parent="WIyWlLk6GJQsqaUBKTNV-0" />
        <mxCell id="HgCOAas21ErX8u_GxDh1-2" value="Contacts" style="shape=table;html=1;whiteSpace=wrap;startSize=30;container=1;collapsible=0;childLayout=tableLayout;fixedRows=1;rowLines=0;fontStyle=1;align=center;" vertex="1" parent="WIyWlLk6GJQsqaUBKTNV-1">
          <mxGeometry x="120" y="70" width="230" height="190" as="geometry" />
        </mxCell>
        <mxCell id="HgCOAas21ErX8u_GxDh1-3" value="" style="shape=partialRectangle;html=1;whiteSpace=wrap;collapsible=0;dropTarget=0;pointerEvents=0;fillColor=none;top=0;left=0;bottom=1;right=0;points=[[0,0.5],[1,0.5]];portConstraint=eastwest;" vertex="1" parent="HgCOAas21ErX8u_GxDh1-2">
          <mxGeometry y="30" width="230" height="30" as="geometry" />
        </mxCell>
        <mxCell id="HgCOAas21ErX8u_GxDh1-4" value="1" style="shape=partialRectangle;html=1;whiteSpace=wrap;connectable=0;fillColor=none;top=0;left=0;bottom=0;right=0;overflow=hidden;" vertex="1" parent="HgCOAas21ErX8u_GxDh1-3">
          <mxGeometry width="51" height="30" as="geometry" />
        </mxCell>
        <mxCell id="HgCOAas21ErX8u_GxDh1-5" value="&lt;div&gt;id(Int)&lt;/div&gt;" style="shape=partialRectangle;html=1;whiteSpace=wrap;connectable=0;fillColor=none;top=0;left=0;bottom=0;right=0;align=left;spacingLeft=6;overflow=hidden;" vertex="1" parent="HgCOAas21ErX8u_GxDh1-3">
          <mxGeometry x="51" width="179" height="30" as="geometry" />
        </mxCell>
        <mxCell id="HgCOAas21ErX8u_GxDh1-6" value="" style="shape=partialRectangle;html=1;whiteSpace=wrap;collapsible=0;dropTarget=0;pointerEvents=0;fillColor=none;top=0;left=0;bottom=0;right=0;points=[[0,0.5],[1,0.5]];portConstraint=eastwest;" vertex="1" parent="HgCOAas21ErX8u_GxDh1-2">
          <mxGeometry y="60" width="230" height="30" as="geometry" />
        </mxCell>
        <mxCell id="HgCOAas21ErX8u_GxDh1-7" value="2" style="shape=partialRectangle;html=1;whiteSpace=wrap;connectable=0;fillColor=none;top=0;left=0;bottom=0;right=0;overflow=hidden;" vertex="1" parent="HgCOAas21ErX8u_GxDh1-6">
          <mxGeometry width="51" height="30" as="geometry" />
        </mxCell>
        <mxCell id="HgCOAas21ErX8u_GxDh1-8" value="&lt;div&gt;nama (char)&lt;/div&gt;" style="shape=partialRectangle;html=1;whiteSpace=wrap;connectable=0;fillColor=none;top=0;left=0;bottom=0;right=0;align=left;spacingLeft=6;overflow=hidden;" vertex="1" parent="HgCOAas21ErX8u_GxDh1-6">
          <mxGeometry x="51" width="179" height="30" as="geometry" />
        </mxCell>
        <mxCell id="HgCOAas21ErX8u_GxDh1-9" value="" style="shape=partialRectangle;html=1;whiteSpace=wrap;collapsible=0;dropTarget=0;pointerEvents=0;fillColor=none;top=0;left=0;bottom=0;right=0;points=[[0,0.5],[1,0.5]];portConstraint=eastwest;" vertex="1" parent="HgCOAas21ErX8u_GxDh1-2">
          <mxGeometry y="90" width="230" height="30" as="geometry" />
        </mxCell>
        <mxCell id="HgCOAas21ErX8u_GxDh1-10" value="3" style="shape=partialRectangle;html=1;whiteSpace=wrap;connectable=0;fillColor=none;top=0;left=0;bottom=0;right=0;overflow=hidden;" vertex="1" parent="HgCOAas21ErX8u_GxDh1-9">
          <mxGeometry width="51" height="30" as="geometry" />
        </mxCell>
        <mxCell id="HgCOAas21ErX8u_GxDh1-11" value="nomor telpon(int)" style="shape=partialRectangle;html=1;whiteSpace=wrap;connectable=0;fillColor=none;top=0;left=0;bottom=0;right=0;align=left;spacingLeft=6;overflow=hidden;" vertex="1" parent="HgCOAas21ErX8u_GxDh1-9">
          <mxGeometry x="51" width="179" height="30" as="geometry" />
        </mxCell>
        <mxCell id="HgCOAas21ErX8u_GxDh1-13" value="4" style="shape=partialRectangle;html=1;whiteSpace=wrap;connectable=0;fillColor=none;top=0;left=0;bottom=0;right=0;overflow=hidden;" vertex="1" parent="WIyWlLk6GJQsqaUBKTNV-1">
          <mxGeometry x="120" y="190" width="51" height="30" as="geometry" />
        </mxCell>
        <mxCell id="HgCOAas21ErX8u_GxDh1-14" value="&lt;div&gt;email(text)&lt;/div&gt;" style="shape=partialRectangle;html=1;whiteSpace=wrap;connectable=0;fillColor=none;top=0;left=0;bottom=0;right=0;align=left;spacingLeft=6;overflow=hidden;" vertex="1" parent="WIyWlLk6GJQsqaUBKTNV-1">
          <mxGeometry x="171" y="190" width="179" height="30" as="geometry" />
        </mxCell>
        <mxCell id="HgCOAas21ErX8u_GxDh1-15" value="Groups" style="shape=table;html=1;whiteSpace=wrap;startSize=30;container=1;collapsible=0;childLayout=tableLayout;fixedRows=1;rowLines=0;fontStyle=1;align=center;" vertex="1" parent="WIyWlLk6GJQsqaUBKTNV-1">
          <mxGeometry x="460" y="100" width="180" height="150" as="geometry" />
        </mxCell>
        <mxCell id="HgCOAas21ErX8u_GxDh1-16" value="" style="shape=partialRectangle;html=1;whiteSpace=wrap;collapsible=0;dropTarget=0;pointerEvents=0;fillColor=none;top=0;left=0;bottom=1;right=0;points=[[0,0.5],[1,0.5]];portConstraint=eastwest;" vertex="1" parent="HgCOAas21ErX8u_GxDh1-15">
          <mxGeometry y="30" width="180" height="30" as="geometry" />
        </mxCell>
        <mxCell id="HgCOAas21ErX8u_GxDh1-17" value="1" style="shape=partialRectangle;html=1;whiteSpace=wrap;connectable=0;fillColor=none;top=0;left=0;bottom=0;right=0;overflow=hidden;" vertex="1" parent="HgCOAas21ErX8u_GxDh1-16">
          <mxGeometry width="40" height="30" as="geometry" />
        </mxCell>
        <mxCell id="HgCOAas21ErX8u_GxDh1-18" value="&lt;div&gt;id(int)&lt;/div&gt;" style="shape=partialRectangle;html=1;whiteSpace=wrap;connectable=0;fillColor=none;top=0;left=0;bottom=0;right=0;align=left;spacingLeft=6;overflow=hidden;" vertex="1" parent="HgCOAas21ErX8u_GxDh1-16">
          <mxGeometry x="40" width="140" height="30" as="geometry" />
        </mxCell>
        <mxCell id="HgCOAas21ErX8u_GxDh1-22" value="" style="shape=partialRectangle;html=1;whiteSpace=wrap;collapsible=0;dropTarget=0;pointerEvents=0;fillColor=none;top=0;left=0;bottom=0;right=0;points=[[0,0.5],[1,0.5]];portConstraint=eastwest;" vertex="1" parent="HgCOAas21ErX8u_GxDh1-15">
          <mxGeometry y="60" width="180" height="30" as="geometry" />
        </mxCell>
        <mxCell id="HgCOAas21ErX8u_GxDh1-23" value="2" style="shape=partialRectangle;html=1;whiteSpace=wrap;connectable=0;fillColor=none;top=0;left=0;bottom=0;right=0;overflow=hidden;" vertex="1" parent="HgCOAas21ErX8u_GxDh1-22">
          <mxGeometry width="40" height="30" as="geometry" />
        </mxCell>
        <mxCell id="HgCOAas21ErX8u_GxDh1-24" value="nama(char)" style="shape=partialRectangle;html=1;whiteSpace=wrap;connectable=0;fillColor=none;top=0;left=0;bottom=0;right=0;align=left;spacingLeft=6;overflow=hidden;" vertex="1" parent="HgCOAas21ErX8u_GxDh1-22">
          <mxGeometry x="40" width="140" height="30" as="geometry" />
        </mxCell>
        <mxCell id="HgCOAas21ErX8u_GxDh1-19" value="" style="shape=partialRectangle;html=1;whiteSpace=wrap;collapsible=0;dropTarget=0;pointerEvents=0;fillColor=none;top=0;left=0;bottom=0;right=0;points=[[0,0.5],[1,0.5]];portConstraint=eastwest;" vertex="1" parent="HgCOAas21ErX8u_GxDh1-15">
          <mxGeometry y="90" width="180" height="30" as="geometry" />
        </mxCell>
        <mxCell id="HgCOAas21ErX8u_GxDh1-20" value="&lt;div&gt;FK&lt;/div&gt;" style="shape=partialRectangle;html=1;whiteSpace=wrap;connectable=0;fillColor=none;top=0;left=0;bottom=0;right=0;overflow=hidden;" vertex="1" parent="HgCOAas21ErX8u_GxDh1-19">
          <mxGeometry width="40" height="30" as="geometry" />
        </mxCell>
        <mxCell id="HgCOAas21ErX8u_GxDh1-21" value="&lt;div&gt;Contacts.id (Int)&lt;br&gt;&lt;/div&gt;" style="shape=partialRectangle;html=1;whiteSpace=wrap;connectable=0;fillColor=none;top=0;left=0;bottom=0;right=0;align=left;spacingLeft=6;overflow=hidden;" vertex="1" parent="HgCOAas21ErX8u_GxDh1-19">
          <mxGeometry x="40" width="140" height="30" as="geometry" />
        </mxCell>
        <mxCell id="HgCOAas21ErX8u_GxDh1-25" value="" style="edgeStyle=entityRelationEdgeStyle;fontSize=12;html=1;endArrow=none;endFill=0;entryX=0;entryY=0.5;entryDx=0;entryDy=0;startArrow=ERzeroToMany;startFill=1;exitX=1;exitY=0.25;exitDx=0;exitDy=0;" edge="1" parent="WIyWlLk6GJQsqaUBKTNV-1" source="HgCOAas21ErX8u_GxDh1-2" target="HgCOAas21ErX8u_GxDh1-19">
          <mxGeometry width="100" height="100" relative="1" as="geometry">
            <mxPoint x="350" y="200" as="sourcePoint" />
            <mxPoint x="450" y="80" as="targetPoint" />
          </mxGeometry>
        </mxCell>
      </root>
    </mxGraphModel>
  </diagram>
</mxfile>
